<mxfile host="app.diagrams.net" modified="2024-01-14T09:06:11.223Z" agent="Mozilla/5.0 (Windows NT 10.0; Win64; x64; rv:121.0) Gecko/20100101 Firefox/121.0" version="22.1.18" etag="BsDC4jEiTpfj4cdvV8dN" type="github">
  <diagram name="Page-1" id="Z5vxMPH51g1Buc_7Myb-">
    <mxGraphModel>
      <root>
        <mxCell id="0" />
        <mxCell id="1" parent="0" />
      </root>
    </mxGraphModel>
  </diagram>
</mxfile>
